<svg width="30" height="24" viewBox="0 0 30 24" fill="none" xmlns="http://www.w3.org/2000/svg">
<path d="M29.1211 12.7461L19.2773 22.5898C18.8477 23.0195 18.3398 23.1172 17.7539 22.8828C17.168 22.6484 16.875 22.2188 16.875 21.5938V15.9688H8.90625C8.51562 15.9688 8.18359 15.832 7.91016 15.5586C7.63672 15.2852 7.5 14.9531 7.5 14.5625V8.9375C7.5 8.54688 7.63672 8.21484 7.91016 7.94141C8.18359 7.66797 8.51562 7.53125 8.90625 7.53125H16.875V1.90625C16.875 1.28125 17.168 0.851562 17.7539 0.617188C18.3398 0.382812 18.8477 0.480469 19.2773 0.910156L29.1211 10.7539C29.3945 11.0273 29.5312 11.3594 29.5312 11.75C29.5312 12.1406 29.3945 12.4727 29.1211 12.7461ZM11.25 22.2969C11.25 22.7656 11.0156 23 10.5469 23H5.625C4.0625 23 2.73438 22.4531 1.64062 21.3594C0.546875 20.2656 0 18.9375 0 17.375V6.125C0 4.5625 0.546875 3.23438 1.64062 2.14062C2.73438 1.04687 4.0625 0.5 5.625 0.5H10.5469C11.0156 0.5 11.25 0.734375 11.25 1.20312V3.54688C11.25 4.01562 11.0156 4.25 10.5469 4.25H5.625C5.11719 4.25 4.66797 4.44531 4.27734 4.83594C3.92578 5.1875 3.75 5.61719 3.75 6.125V17.375C3.75 17.8828 3.92578 18.332 4.27734 18.7227C4.66797 19.0742 5.11719 19.25 5.625 19.25H10.5469C11.0156 19.25 11.25 19.4844 11.25 19.9531V22.2969Z" fill="white"/>
</svg>
