<svg width="38" height="31" viewBox="0 0 38 31" fill="none" xmlns="http://www.w3.org/2000/svg">
<path d="M11.4223 27.9751V22.2496L17.8509 19.5041V24.7608L11.4223 27.9751ZM10.3509 20.3746L3.58747 17.4784L10.3509 14.5822L17.1143 17.4784L10.3509 20.3746ZM28.5652 27.9751V22.2496L34.9937 19.5041V24.7608L28.5652 27.9751ZM27.4937 20.3746L20.7303 17.4784L27.4937 14.5822L34.2571 17.4784L27.4937 20.3746ZM19.9937 15.4695V10.9996L26.4223 8.25408V12.7072L19.9937 15.4695ZM18.9223 9.12462L11.5395 5.96055L18.9223 2.79649L26.3051 5.96055L18.9223 9.12462ZM37.1366 17.7965C37.1366 16.9427 36.6343 16.1726 35.8308 15.821L28.5652 12.7072V6.01078C28.5652 5.15698 28.0462 4.38689 27.2593 4.03533L19.7593 0.821043C19.4915 0.703856 19.2069 0.653632 18.9223 0.653632C18.6377 0.653632 18.3531 0.703856 18.0852 0.821043L10.5852 4.03533C9.79841 4.38689 9.27944 5.15698 9.27944 6.01078V12.7072L2.01381 15.821C1.22698 16.1726 0.708008 16.9427 0.708008 17.7965V24.7608C0.708008 25.5643 1.16002 26.3177 1.89662 26.6693L9.39662 30.4193C9.69796 30.5867 10.016 30.6536 10.3509 30.6536C10.6857 30.6536 11.0038 30.5867 11.3051 30.4193L18.8051 26.6693C18.8553 26.6525 18.8888 26.6358 18.9223 26.6023C18.9558 26.6358 18.9893 26.6525 19.0395 26.6693L26.5395 30.4193C26.8408 30.5867 27.1589 30.6536 27.4937 30.6536C27.8285 30.6536 28.1466 30.5867 28.448 30.4193L35.948 26.6693C36.6846 26.3177 37.1366 25.5643 37.1366 24.7608V17.7965Z" fill="white"/>
</svg>
