<svg width="26" height="26" viewBox="0 0 26 26" fill="none" xmlns="http://www.w3.org/2000/svg">
<path d="M25.853 13.0216C25.853 5.94008 20.0773 0.16441 12.9958 0.16441C9.69782 0.16441 6.50028 1.48696 4.13979 3.71352L1.96345 1.55392C1.66211 1.23584 1.19336 1.15213 0.808315 1.31954C0.406529 1.48696 0.138672 1.872 0.138672 2.30727V9.80727C0.138672 10.3932 0.624163 10.8787 1.2101 10.8787H8.7101C9.14537 10.8787 9.53041 10.6108 9.69782 10.2091C9.86523 9.82401 9.78153 9.35526 9.46345 9.05392L7.16992 6.74365C8.72684 5.28718 10.8027 4.45012 12.9958 4.45012C17.7168 4.45012 21.5672 8.30057 21.5672 13.0216C21.5672 17.7425 17.7168 21.593 12.9958 21.593C10.334 21.593 7.87305 20.3876 6.23242 18.2615C6.14872 18.1443 5.99805 18.0774 5.84738 18.0606C5.69671 18.0606 5.54604 18.1108 5.42885 18.2113L3.13532 20.5216C2.95117 20.7057 2.93443 21.0238 3.10184 21.2414C5.54604 24.1878 9.16211 25.8787 12.9958 25.8787C20.0773 25.8787 25.853 20.103 25.853 13.0216ZM15.1387 8.20012C15.1387 7.89878 14.9043 7.66441 14.603 7.66441H13.5315C13.2302 7.66441 12.9958 7.89878 12.9958 8.20012V14.093H9.24581C8.94448 14.093 8.7101 14.3274 8.7101 14.6287V15.7001C8.7101 16.0015 8.94448 16.2358 9.24581 16.2358H14.603C14.9043 16.2358 15.1387 16.0015 15.1387 15.7001V8.20012Z" fill="white"/>
</svg>
