<svg width="38" height="31" viewBox="0 0 38 31" fill="none" xmlns="http://www.w3.org/2000/svg">
<path d="M12.4961 21.375C14.332 21.375 15.875 22.0195 17.125 23.3086C18.4141 24.5977 19.0586 26.1602 19.0586 27.9961C19.0586 28.7383 18.7852 29.3828 18.2383 29.9297C17.6914 30.4766 17.0273 30.75 16.2461 30.75H3.12109C2.33984 30.75 1.67578 30.4766 1.12891 29.9297C0.582031 29.3828 0.308594 28.7383 0.308594 27.9961C0.308594 26.1602 0.933594 24.5977 2.18359 23.3086C3.47266 22.0195 5.03516 21.375 6.87109 21.375C7.02734 21.375 7.16406 21.3945 7.28125 21.4336C8.10156 21.707 8.90234 21.8438 9.68359 21.8438C10.4648 21.8438 11.2656 21.707 12.0859 21.4336C12.2031 21.3945 12.3398 21.375 12.4961 21.375ZM13.668 17.8594C12.5742 18.9531 11.2461 19.5 9.68359 19.5C8.12109 19.5 6.79297 18.9531 5.69922 17.8594C4.60547 16.7656 4.05859 15.4375 4.05859 13.875C4.05859 12.3125 4.60547 10.9844 5.69922 9.89062C6.79297 8.79687 8.12109 8.25 9.68359 8.25C11.2461 8.25 12.5742 8.79687 13.668 9.89062C14.7617 10.9844 15.3086 12.3125 15.3086 13.875C15.3086 15.4375 14.7617 16.7656 13.668 17.8594ZM34.9961 0.75C35.7773 0.75 36.4414 1.04297 36.9883 1.62891C37.5352 2.17578 37.8086 2.85938 37.8086 3.67969V22.1953C37.8086 23.0156 37.5352 23.7188 36.9883 24.3047C36.4414 24.8516 35.7773 25.125 34.9961 25.125H20.6406C20.2891 23.6406 19.5273 22.3906 18.3555 21.375H22.8086V17.625H30.3086V21.375H34.0586V4.5H13.4336V7.42969C12.2227 6.72656 10.9727 6.375 9.68359 6.375V3.67969C9.68359 2.85938 9.95703 2.17578 10.5039 1.62891C11.0508 1.04297 11.7148 0.75 12.4961 0.75H34.9961Z" fill="white"/>
</svg>
