<svg width="34" height="27" viewBox="0 0 34 27" fill="none" xmlns="http://www.w3.org/2000/svg">
<path d="M31.0625 0.72876C31.8438 0.72876 32.5078 1.0022 33.0547 1.54907C33.6016 2.09595 33.875 2.76001 33.875 3.54126V4.47876H0.125V3.54126C0.125 2.76001 0.398438 2.09595 0.945312 1.54907C1.49219 1.0022 2.15625 0.72876 2.9375 0.72876H31.0625ZM0.125 24.1663V6.35376H33.875V24.1663C33.875 24.9475 33.6016 25.6116 33.0547 26.1584C32.5078 26.7053 31.8438 26.9788 31.0625 26.9788H2.9375C2.15625 26.9788 1.49219 26.7053 0.945312 26.1584C0.398438 25.6116 0.125 24.9475 0.125 24.1663ZM20.75 10.5725V11.51C20.75 11.8225 20.9062 11.9788 21.2188 11.9788H29.6562C29.9688 11.9788 30.125 11.8225 30.125 11.51V10.5725C30.125 10.26 29.9688 10.1038 29.6562 10.1038H21.2188C20.9062 10.1038 20.75 10.26 20.75 10.5725ZM20.75 14.3225V15.26C20.75 15.5725 20.9062 15.7288 21.2188 15.7288H29.6562C29.9688 15.7288 30.125 15.5725 30.125 15.26V14.3225C30.125 14.01 29.9688 13.8538 29.6562 13.8538H21.2188C20.9062 13.8538 20.75 14.01 20.75 14.3225ZM20.75 18.0725V19.01C20.75 19.3225 20.9062 19.4788 21.2188 19.4788H29.6562C29.9688 19.4788 30.125 19.3225 30.125 19.01V18.0725C30.125 17.76 29.9688 17.6038 29.6562 17.6038H21.2188C20.9062 17.6038 20.75 17.76 20.75 18.0725ZM13.0742 11.217C12.332 10.4749 11.4531 10.1038 10.4375 10.1038C9.42188 10.1038 8.54297 10.4749 7.80078 11.217C7.05859 11.9592 6.6875 12.8381 6.6875 13.8538C6.6875 14.8694 7.05859 15.7483 7.80078 16.4905C8.54297 17.2327 9.42188 17.6038 10.4375 17.6038C11.4531 17.6038 12.332 17.2327 13.0742 16.4905C13.8164 15.7483 14.1875 14.8694 14.1875 13.8538C14.1875 12.8381 13.8164 11.9592 13.0742 11.217ZM4.05078 22.0569C3.97266 22.3303 4.03125 22.6038 4.22656 22.8772C4.42188 23.1116 4.67578 23.2288 4.98828 23.2288H15.8867C16.1992 23.2288 16.4531 23.1116 16.6484 22.8772C16.8438 22.6428 16.9023 22.3694 16.8242 22.0569C16.5898 21.3147 16.1406 20.7092 15.4766 20.2405C14.8125 19.7327 14.0703 19.4788 13.25 19.4788H12.7812C12.0391 19.7913 11.2578 19.9475 10.4375 19.9475C9.61719 19.9475 8.83594 19.7913 8.09375 19.4788H7.625C7.07812 19.4788 6.55078 19.5959 6.04297 19.8303C5.57422 20.0256 5.16406 20.3186 4.8125 20.7092C4.46094 21.0999 4.20703 21.5491 4.05078 22.0569Z" fill="white"/>
</svg>
