<svg width="38" height="31" viewBox="0 0 38 31" fill="none" xmlns="http://www.w3.org/2000/svg">
<path d="M35.9922 22.0771L37.5156 22.9561C37.7109 23.0732 37.7891 23.249 37.75 23.4834C37.3594 24.7334 36.6953 25.8467 35.7578 26.8232C35.6016 26.9795 35.4258 27.0186 35.2305 26.9404L33.7656 26.0615C33.1016 26.6084 32.3789 27.0186 31.5977 27.292V29.0498C31.5977 29.2842 31.4805 29.4209 31.2461 29.46C29.957 29.7334 28.668 29.7334 27.3789 29.46C27.1445 29.4209 27.0273 29.2842 27.0273 29.0498V27.292C26.2461 27.0186 25.5234 26.6084 24.8594 26.0615L23.3359 26.9404C23.1406 27.0186 22.9648 26.9795 22.8086 26.8232C21.9102 25.8467 21.2656 24.7334 20.875 23.4834C20.7969 23.249 20.875 23.0732 21.1094 22.9561L22.5742 22.0771C22.418 21.2568 22.418 20.4365 22.5742 19.6162L21.1094 18.7373C20.9141 18.6201 20.8359 18.4443 20.875 18.21C21.2656 16.96 21.9102 15.8467 22.8086 14.8701C22.9648 14.7139 23.1406 14.6748 23.3359 14.7529L24.8594 15.6318C25.5234 15.085 26.2461 14.6748 27.0273 14.4014V12.6436C27.0273 12.4092 27.1445 12.2725 27.3789 12.2334C28.668 11.96 29.957 11.96 31.2461 12.2334C31.4805 12.2725 31.5977 12.4092 31.5977 12.6436V14.4014C32.3789 14.6748 33.1016 15.085 33.7656 15.6318L35.2305 14.7529C35.4258 14.6748 35.6016 14.7139 35.7578 14.8701C36.6953 15.8467 37.3594 16.96 37.75 18.21C37.7891 18.4443 37.7109 18.6201 37.5156 18.7373L35.9922 19.6162C36.1484 20.4365 36.1484 21.2568 35.9922 22.0771ZM27.3203 22.8389C27.8672 23.3857 28.5312 23.6592 29.3125 23.6592C30.0938 23.6592 30.7578 23.3857 31.3047 22.8389C31.8516 22.292 32.125 21.6279 32.125 20.8467C32.125 20.0654 31.8516 19.4014 31.3047 18.8545C30.7578 18.3076 30.0938 18.0342 29.3125 18.0342C28.5312 18.0342 27.8672 18.3076 27.3203 18.8545C26.7734 19.4014 26.5 20.0654 26.5 20.8467C26.5 21.6279 26.7734 22.292 27.3203 22.8389ZM18.6484 13.0537C17.2031 14.499 15.4453 15.2217 13.375 15.2217C11.3047 15.2217 9.52734 14.499 8.04297 13.0537C6.59766 11.5693 5.875 9.79199 5.875 7.72168C5.875 5.65137 6.59766 3.89355 8.04297 2.44824C9.52734 0.963867 11.3047 0.22168 13.375 0.22168C15.4453 0.22168 17.2031 0.963867 18.6484 2.44824C20.1328 3.89355 20.875 5.65137 20.875 7.72168C20.875 9.79199 20.1328 11.5693 18.6484 13.0537ZM25.1523 28.4639V29.0498C25.1523 29.2451 25.1914 29.4795 25.2695 29.7529C24.8008 30.0654 24.2734 30.2217 23.6875 30.2217H3.0625C2.28125 30.2217 1.61719 29.9482 1.07031 29.4014C0.523438 28.8545 0.25 28.1904 0.25 27.4092V24.9482C0.25 22.7998 1.01172 20.9639 2.53516 19.4404C4.09766 17.8779 5.95312 17.0967 8.10156 17.0967H9.09766C10.4648 17.7217 11.8906 18.0342 13.375 18.0342C14.8594 18.0342 16.2852 17.7217 17.6523 17.0967H18.6484C18.7266 17.0967 18.8438 17.1162 19 17.1553C19.1562 17.1553 19.2539 17.1553 19.293 17.1553C19.293 17.1943 19.2539 17.2725 19.1758 17.3896C19.1367 17.5068 19.1172 17.6045 19.1172 17.6826C18.9609 18.1904 18.9805 18.6982 19.1758 19.2061C19.3711 19.7139 19.7031 20.1045 20.1719 20.3779L20.6406 20.6123C20.6016 20.7686 20.6016 20.9248 20.6406 21.0811L20.1719 21.374C19.7031 21.6475 19.3711 22.0381 19.1758 22.5459C18.9805 23.0146 18.9609 23.5029 19.1172 24.0107C19.5859 25.5342 20.3672 26.9014 21.4609 28.1123C21.9297 28.5811 22.4961 28.8154 23.1602 28.8154C23.5508 28.8154 23.9219 28.7178 24.2734 28.5225L24.7422 28.2881C24.9375 28.4053 25.0742 28.4639 25.1523 28.4639Z" fill="white"/>
</svg>
